<svg version="1.1" xmlns="http://www.w3.org/2000/svg" viewBox="0 0 925 270" width="925" height="270"><path d="M226.25,73.93 C229.62,75.17 234.92,75.34 237.17,77.47 C221.24,81.01 218.25,84.63 215.00,100.38 C212.83,104.79 210.80,92.41 210.11,91.25 C181.45,127.80 147.41,163.97 109.25,192.46 C64.85,227.43 32.25,179.72 83.25,156.42 C102.76,126.23 121.76,92.31 141.61,61.45 C144.37,58.97 151.64,59.15 154.25,61.76 C155.55,65.67 175.96,97.54 175.75,99.05 C174.29,99.96 167.23,106.84 165.75,105.93 C164.75,105.33 148.44,76.50 147.75,76.03 C132.67,98.76 118.10,125.03 102.95,148.62 C144.86,137.63 176.85,111.22 203.50,83.35 L203.50,82.11 C199.79,80.24 194.32,79.04 190.85,77.05 C191.60,75.44 205.56,75.33 209.87,66.22 C216.78,42.33 211.09,67.73 226.25,73.93 Z M147.50,142.50 C128.56,153.90 104.92,160.46 83.25,169.13 C66.44,177.46 65.35,196.95 83.25,193.23 C97.35,190.31 138.77,154.53 147.50,142.50 Z" fill="#FEFDFD" fill-rule="nonzero"/><path d="M854.75,118.56 C868.51,116.72 875.15,124.98 875.38,125.00 C877.85,125.25 875.65,120.35 876.75,119.25 L887.97,118.97 C887.71,134.63 890.93,166.20 886.41,178.75 C877.37,203.85 835.31,193.23 836.00,184.91 C836.03,184.54 840.36,177.39 840.38,177.38 C852.75,185.78 877.56,188.64 876.15,165.50 C835.22,191.21 813.72,127.72 854.75,118.56 Z M873.92,153.75 C885.68,126.60 843.86,117.89 845.00,147.96 C847.83,162.21 866.14,163.82 873.92,153.75 Z" fill="#FEFDFD" fill-rule="nonzero"/><path d="M191.83,124.50 L227.75,184.75 C232.59,192.80 229.10,200.02 222.30,203.00 L109.00,203.00 C109.71,201.25 123.72,191.05 123.92,191.00 L216.50,191.00 C213.86,184.67 183.69,136.78 183.50,135.26 C183.30,133.67 190.91,124.08 191.83,124.50 Z" fill="#FEFDFD" fill-rule="nonzero"/><path d="M569.00,150.50 L527.97,150.50 C526.39,155.28 534.66,161.81 537.25,162.81 C550.37,167.83 557.54,158.04 558.42,158.00 C559.25,157.96 565.77,164.82 565.60,166.06 C546.25,185.72 510.22,171.46 514.81,141.25 C521.29,108.26 572.29,110.30 569.00,150.50 Z M556.25,141.75 C556.90,123.81 527.08,125.27 527.97,142.02 L556.25,141.75 Z" fill="#FEFDFD" fill-rule="nonzero"/><path d="M624.00,139.83 L624.00,174.03 L612.25,173.75 C612.35,162.47 609.06,177.07 592.25,174.99 C570.82,172.33 570.54,145.44 589.95,141.91 C592.74,141.40 610.34,141.98 611.25,141.25 C612.02,125.69 591.02,126.42 582.91,134.55 C582.17,134.70 577.20,126.91 578.00,125.23 C594.63,113.34 623.03,115.72 624.00,139.83 Z M595.25,150.64 C583.85,152.59 586.09,167.19 600.25,165.62 C607.23,164.84 612.28,158.84 611.65,150.50 C611.53,150.39 595.63,150.57 595.25,150.64 Z" fill="#FEFDFD" fill-rule="nonzero"/><path d="M313.98,118.97 L325.75,119.25 C327.96,138.10 318.91,166.91 342.75,163.20 C356.46,158.55 351.58,136.29 352.50,119.00 L364.41,119.00 C365.24,123.49 365.23,173.27 364.75,173.75 L353.00,174.03 C353.89,161.34 350.52,174.09 338.40,175.12 C307.74,175.54 313.55,147.15 313.98,118.97 Z" fill="#FEFDFD" fill-rule="nonzero"/><path d="M822.49,138.25 L822.50,174.00 L810.00,174.00 L810.00,140.94 C807.95,124.50 786.99,127.10 783.80,141.25 C783.19,143.97 783.84,173.16 783.25,173.75 L770.99,174.03 L771.25,119.25 C771.63,118.87 782.37,118.87 782.75,119.25 L783.05,125.00 L784.38,125.00 C797.31,111.78 821.84,119.01 822.49,138.25 Z" fill="#FEFDFD" fill-rule="nonzero"/><path d="M729.99,140.25 L730.00,174.03 L717.75,173.75 L717.25,139.25 C712.15,123.20 693.04,128.34 691.01,143.75 L691.00,174.03 L678.75,173.75 C678.34,157.15 678.34,135.85 678.75,119.25 C679.13,118.87 689.87,118.87 690.25,119.25 C690.92,119.73 689.99,125.11 691.00,125.58 C705.06,111.57 729.81,118.27 729.99,140.25 Z" fill="#FEFDFD" fill-rule="nonzero"/><path d="M374.50,119.00 L387.96,119.00 C388.13,119.06 400.66,135.92 400.75,135.97 C400.84,136.01 401.66,135.99 401.75,135.95 C401.75,135.95 414.57,118.97 414.57,118.97 C417.09,119.58 428.40,117.75 428.00,120.25 C427.89,120.94 408.75,144.76 409.00,146.30 C409.19,147.51 428.98,172.91 429.00,173.14 C429.00,173.14 429.00,174.00 429.00,174.00 L414.75,173.96 L401.37,155.98 C399.51,157.23 388.29,173.60 387.30,174.00 L374.00,174.00 C374.00,174.00 374.00,172.65 374.00,172.65 C374.08,171.91 393.86,147.29 393.50,145.70 C391.73,143.25 374.60,120.94 374.50,120.34 C374.50,120.34 374.50,119.00 374.50,119.00 Z" fill="#FEFDFD" fill-rule="nonzero"/><path d="M258.00,101.47 L270.75,101.75 C271.37,105.99 270.74,162.22 271.01,162.49 L305.75,162.75 L306.03,174.00 L258.00,174.00 L258.00,101.47 Z" fill="#FEFDFD" fill-rule="nonzero"/><path d="M462.00,101.50 L474.50,101.50 L474.50,162.49 L509.75,162.75 L510.03,174.00 L462.00,174.00 L462.00,101.50 Z" fill="#FEFDFD" fill-rule="nonzero"/><path d="M669.00,118.50 L669.00,130.37 C644.95,129.36 650.76,152.20 650.00,174.00 L638.00,174.00 L638.00,118.97 L649.75,119.25 L650.05,126.00 C654.86,122.33 659.23,117.56 669.00,118.50 Z" fill="#FEFDFD" fill-rule="nonzero"/><path d="M756.25,119.25 L756.51,174.00 L744.00,174.00 L744.00,119.67 C744.54,118.67 755.82,118.82 756.25,119.25 Z" fill="#FEFDFD" fill-rule="nonzero"/><path d="M758.62,102.12 C759.52,112.69 742.85,114.09 742.38,103.44 C741.93,93.25 757.81,92.65 758.62,102.12 Z" fill="#FEFDFD" fill-rule="nonzero"/><path d="M213.11,21.01 C214.46,21.34 216.23,47.40 216.00,47.98 C215.33,49.63 211.67,49.63 211.00,47.98 C210.58,46.94 212.71,22.52 213.11,21.01 Z" fill="#FEFDFD" fill-rule="nonzero"/><path d="M185.00,35.00 C191.71,39.38 196.26,46.03 202.60,50.75 C205.21,66.95 185.78,37.79 185.00,35.00 Z" fill="#FEFDFD" fill-rule="nonzero"/><path d="M237.25,43.29 C236.73,44.13 228.42,55.00 228.42,55.00 C226.11,56.32 223.59,54.94 224.50,51.37 C224.50,51.37 246.94,27.70 237.25,43.29 Z" fill="#FEFDFD" fill-rule="nonzero"/><path d="M172.80,59.50 C173.74,59.25 193.68,60.82 194.25,61.04 C202.54,70.87 175.03,60.71 172.80,59.50 Z" fill="#FEFDFD" fill-rule="nonzero"/><path d="M253.08,59.50 C253.40,59.71 252.70,60.65 252.70,60.65 C252.70,60.65 236.47,65.50 236.47,65.50 C230.07,66.02 231.95,61.70 233.76,61.02 C234.45,60.76 253.06,59.48 253.08,59.50 Z" fill="#FEFDFD" fill-rule="nonzero"/></svg>