<svg xmlns="http://www.w3.org/2000/svg" width="1920" height="559" preserveAspectRatio="none" style="display: block;" version="1.1" viewBox="0 0 2048 596"><path fill="rgb(226,186,80)" d="M418.138 170.407C435.038 165.442 454.495 161.959 463.086 145.561C468.176 135.844 469.259 126.864 473.153 117.769C483.61 140.979 479.196 153.857 507.649 163.363C513.204 165.219 522.447 168.587 528.092 170.708C511.354 176.014 493.853 178.515 485.275 194.519C480.925 202.634 477.41 222.341 474.203 225.633C469.493 223.017 469.701 209.198 462.503 207.219C455.095 212.992 445.339 229.076 438.504 237.324C412.008 269.304 384.937 297.668 355.121 326.973C311.931 369.423 258.843 423.681 202.345 447.54C132.416 477.071 95.55 395.798 159.991 357.761C167.938 352.692 176.733 348.859 185.218 344.949C199.975 339.153 215.056 334.333 229.829 328.581C299.659 307.666 362.367 267.011 415.381 217.638C424.077 209.54 443.754 190.405 450.449 181.421C440.168 177.725 427.817 174.069 418.138 170.407ZM155.569 408.964C157.738 416.057 158.196 418.571 163.85 423.455C178.559 430.747 193.079 422.069 206.218 415.581C221.837 407.867 316.609 332.532 318.693 321.622C318.245 321.473 317 321.011 316.618 321.004C298.496 330.604 278.536 338.296 259.658 346.277C228.226 359.564 163.748 369.614 155.569 408.964Z"/><path fill="rgb(23,82,126)" d="M1892.62 263.139C1914.35 260.832 1925.82 265.13 1941.66 279.464L1941.96 263.912L1964.72 263.826L1964.77 334.534C1964.79 356.257 1967.12 389.924 1953.44 407.341C1928.15 439.55 1878.04 430.492 1849.2 410.502L1855.8 398.497C1858.04 394.326 1859.03 390.641 1863.99 394.105C1876.28 402.683 1887.79 407.526 1903.1 407.264C1932.73 406.757 1940.42 389.513 1940.41 363.122A49.63 49.63 0 0 1 1914.11 377.659C1898.85 380.778 1881.09 377.546 1868.24 369.075C1831.53 344.879 1837.89 280.223 1880.56 266.096C1884.7 264.725 1888.39 263.948 1892.62 263.139ZM1912.37 356.37C1932.28 351.927 1944.75 332.102 1940.13 312.232C1935.51 292.361 1915.58 280.068 1895.75 284.861C1876.17 289.596 1864.06 309.229 1868.62 328.853S1892.71 360.757 1912.37 356.37ZM423.652 272.097C441.863 304.271 461.97 336.013 480.744 367.931C489.365 382.882 499.22 397.411 506.954 412.828C513.305 425.793 507.272 447.031 490.748 448.069C465.169 449.676 438.958 448.988 413.278 448.99L256.25 448.944L237.779 448.957L272.561 421.888C339.297 420.258 412.747 421.837 479.97 421.684C454.984 381.518 430.497 337.026 405.173 297.845A1053 1053 0 0 0 423.652 272.097Z"/><path fill="rgb(226,186,80)" d="M777.654 263.172L812.515 262.877C813.075 276.451 812.736 292.485 812.758 306.25C812.783 328.898 813.89 364.269 812.099 385.338C805.199 385.724 787.653 387.655 781.718 384.404C779.623 383.256 779.754 379.999 779.414 377.437C775.659 374.091 758.845 387.094 747.437 387.152C723.99 387.27 700.491 376.592 696.844 351.026C692.858 323.087 694.79 291.568 694.782 262.968L729.989 263.031C730.224 286.725 729.118 310.812 730.605 334.385C731.256 344.704 738.638 355.904 749.818 356.325C772.645 357.186 777.341 339.024 777.414 320.066C777.486 301.349 776.618 281.718 777.654 263.172Z"/><path fill="rgb(23,82,126)" d="M1192.26 263.205C1229.45 257.327 1259.2 282.985 1260.01 320.211C1260.1 324.374 1259.96 328.448 1259.77 332.603C1232.85 331.132 1194.43 332.364 1166.3 332.235C1174.78 363.14 1207.31 375.456 1232.81 356.051L1238.92 349.52C1243.62 354.386 1248.97 360.748 1253.54 365.897C1243.5 376.482 1235.94 382.011 1220.88 385.035C1160.73 397.105 1122.34 337.646 1153.74 286.418C1161.97 273 1176.87 266.049 1192.26 263.205ZM1206.25 314.623L1237.01 314.424C1234.39 303.36 1230.33 294.254 1220.13 288.006A32.65 32.65 0 0 0 1201.04 283.41C1180.94 284.744 1171.41 295.634 1166.68 314.532Q1186.465 314.741 1206.25 314.623ZM185.218 344.949C188.075 339.837 191.171 334.841 194.244 329.841C232.84 267.055 270.502 203.681 309.289 141.021C310.833 138.525 313.154 135.425 315.717 133.898C337.972 120.633 350.803 152.014 359.718 167.03A3100 3100 0 0 0 390.455 218.324C383.088 224.204 375.016 230.381 368.28 236.882C354.172 214.484 340.069 190.134 326.513 167.322A9878 9878 0 0 1 259.808 277.639C254.989 285.532 231.4 323.045 229.829 328.581C215.056 334.333 199.975 339.153 185.218 344.949ZM1324.56 262.444Q1325.91 262.399 1327.26 262.401C1366.75 262.433 1380.38 283.8 1380.14 320.851C1380 342.058 1380.02 363.745 1379.88 384.99L1356.97 384.979L1356.94 371.322C1337.38 393.202 1295.83 392.279 1280.66 365.848C1275.16 352.84 1275.57 335.775 1286.43 325.656C1303.54 309.704 1333.81 313.025 1355.68 313.281C1352.46 273.613 1315.84 278.729 1290.58 296.362A938 938 0 0 0 1279.72 278.759C1293.86 267.161 1306.92 263.814 1324.56 262.444ZM1339.17 364.48C1355.11 355.091 1355.41 349.237 1355.52 331.745C1344.2 331.756 1325.57 331.294 1314.93 332.234C1285.17 344.56 1304.93 376.379 1339.17 364.48Z"/><path fill="rgb(226,186,80)" d="M952.093 262.533L952.666 262.799L952.988 264.416C944.974 277.145 920.152 310.945 910.432 322.453C917.022 329.864 950.385 376.817 955.378 385.443C945.893 386.333 926.465 385.885 917.007 385.6C911.278 380.516 895.159 355.545 890.484 348.309C884.662 357.593 871.065 377.58 864.047 385.388C857.485 386.181 843.629 385.845 836.5 385.857L824.959 385.891C826.662 383.089 828.497 380.391 830.457 377.764C843.918 359.732 856.391 340.957 870.017 323.05C857.552 304.697 837.721 281.085 827.023 263.017Q846.978 262.894 866.931 263.127C873.529 271.201 883.592 287.127 890.417 296.491C896.731 289.851 908.885 271.647 915.623 263.063Q933.863 263.148 952.093 262.533ZM568.925 226.045L604.716 226.004C604.715 244.251 603.505 343.434 607.058 353.33C611.543 355.412 669.901 354.576 679.251 354.584C679.35 361.831 679.926 377.846 678.784 384.319L676.75 385.421C647.659 387.015 597.704 386.168 568.079 385.569C568.812 371.805 567.864 358.553 568.227 344.941C569.271 305.679 567.838 265.039 568.925 226.045Z"/><path fill="rgb(23,82,126)" d="M1555.12 263.148C1600.59 258.82 1613.68 284.974 1613.45 325.653C1613.34 345.358 1613.62 365.291 1613.12 385.089L1588.84 385.089C1588.19 360.395 1590.37 334.16 1587.94 309.813C1585.75 287.874 1567.73 282.24 1548.89 285.849C1531.93 292.341 1526.79 307.879 1526.64 324.557C1526.45 344.568 1527.61 365.146 1526.42 385.056L1502.33 385.104C1503 375.976 1502.32 360.743 1502.45 351.256C1502.81 322.405 1501.58 292.654 1502.92 263.889C1510.55 263.629 1518.28 263.779 1525.92 263.843L1526.19 279.221C1534.96 269.118 1542.34 265.865 1555.12 263.148ZM1769 262.413C1805.7 264.206 1817.43 284.585 1817.92 319.387C1818.23 341.262 1817.96 363.227 1817.75 385.112L1793.82 385.114C1793.92 354.554 1806.56 260.67 1748.09 288.629C1742.65 293.63 1737.98 297.826 1735.04 304.803C1728.52 320.265 1732.46 365.488 1731.54 385.008C1723.66 385.047 1715.77 385.046 1707.89 385.005L1707.83 263.785C1715.21 263.656 1722.99 263.824 1730.4 263.874C1730.78 268.579 1730.86 274.255 1731.06 279.05C1742.7 266.237 1752.58 263.737 1769 262.413ZM1026.94 224.929L1052.05 224.967C1052.86 269.581 1052.45 317.75 1051.99 362.423Q1091.935 362.135 1131.88 362.306C1132.03 369.81 1131.93 377.62 1131.95 385.152L1026.88 385.047ZM1474.59 262.396C1475.28 262.353 1477.47 262.558 1478.28 262.613C1481.69 266.429 1479.95 280.646 1479.65 286.08C1468.13 285.957 1459.88 286.165 1450.72 294.298C1437.74 305.826 1438.44 322.437 1438.54 338.11C1438.64 353.806 1439 369.453 1438.24 385.019C1431.42 385.233 1422.48 386.396 1416.46 384.398C1414.06 381.758 1414.79 381.476 1414.68 377.25L1414.68 263.754L1437.84 263.852L1438.06 281.516C1447.67 267.673 1458.39 263.891 1474.59 262.396ZM1648.08 263.697Q1660.05 263.671 1672.02 263.787C1672.81 302.884 1672.45 345.918 1672.01 385.04C1664.06 385.121 1656.01 385.037 1648.05 385.012ZM1657.34 213.2C1665.75 211.742 1673.77 217.281 1675.38 225.654S1671.6 242.148 1663.26 243.912A15.642 15.642 0 1 1 1657.34 213.2Z"/><path fill="rgb(226,186,80)" d="M523.091 86.867C529.515 79.294 534.645 75.509 542.891 70.329C539.796 76.405 538.075 79.899 533.978 85.47C528.775 92.466 506.161 129.207 497.274 121.887C494.694 110.751 515.271 93.053 523.091 86.867Z"/><path fill="rgb(214,189,125)" d="M523.091 86.867C529.515 79.294 534.645 75.509 542.891 70.329C539.796 76.405 538.075 79.899 533.978 85.47L531.916 82.038C529.423 81.883 526.814 84.818 523.091 86.867Z"/><path fill="rgb(226,186,80)" d="M414.143 88.26L416.197 86.16C419.94 85.175 420.951 86.592 424.947 88.86C432.241 94.754 453.636 111.321 447.603 121.249C436.992 123.526 419.801 96.754 414.143 88.261ZM469.834 62.95C471.902 63.367 474.724 63.761 476.45 64.825C477.386 74.7 483.26 107.417 472.598 111.294C463.054 107.394 468.537 71.013 469.834 62.95ZM376.636 129.337A21 21 0 0 1 379.184 129.065C386.253 128.711 428.65 132.999 432.93 136.887C434.38 140.634 433.874 139.954 433.182 144.294C431.46 145.055 428.419 145.855 426.736 145.529C418.42 143.914 381.228 134.713 376.636 129.337ZM560.523 129.409C563.61 128.91 564.309 128.911 567.408 129.337L567.802 130.364C564.641 134.003 529.795 143.446 522.316 145.689C516.875 146.258 516.216 146.439 512.972 142.254C511.984 133.535 525.886 133.298 532.372 132.461C541.68 131.258 551.176 130.396 560.523 129.409Z"/><path fill="rgb(214,189,125)" d="M414.143 88.26C411.758 86.02 406.158 77.425 406.553 73.832C411.713 73.623 421.558 84.998 424.947 88.86C420.951 86.592 419.94 85.175 416.197 86.16ZM469.834 62.95C470.033 58.198 469.868 52.026 471.876 47.862L473.343 47.196C476.852 51.12 476.336 59.463 476.45 64.826C474.724 63.761 471.902 63.367 469.834 62.95Z"/></svg>