<svg xmlns="http://www.w3.org/2000/svg" width="1920" height="559" preserveAspectRatio="none" style="display: block;" version="1.1" viewBox="0 0 2048 596"><path fill="rgb(226,184,78)" d="M1102.38 196.731C1116.83 192.19 1134.78 187.663 1146.77 178.259C1157.56 169.792 1158.69 148.571 1165.19 138.567L1166.49 138.207C1169.61 142.744 1173.24 155.651 1174.86 161.393C1181.63 185.499 1208.08 188.771 1228.68 196.672C1210.64 202.641 1188.85 206.26 1179.95 223.56C1174.85 233.49 1171.6 253.35 1168.21 258.882L1166.44 259.367C1161.79 255.465 1157.62 238.44 1155.66 231.751C1129.54 274.43 1092.93 314.142 1058.55 350.563C1013.37 398.418 966.232 445.714 913.503 485.333C880.197 510.358 832.788 542.465 790.59 518.131C764.298 502.799 762.916 467.434 778.265 443.835C791.338 423.144 812.114 410.931 834.329 400.866C849.81 394.675 872.333 387.848 886.418 381.311C986.498 349.7 1070.34 287.786 1139.39 209.748C1127.61 204.349 1114.77 200.724 1102.38 196.731ZM810.861 492.374C834.91 505.024 871.621 475.763 890.359 461.656C925.707 435.044 960.769 404.159 991.303 372.152L991.601 370.467L989.927 369.874A756 756 0 0 1 922.867 401.42C884.59 416.77 836.993 424.743 809.079 456.983C799.309 468.265 799.334 482.246 810.861 492.374Z"/><path fill="rgb(25,84,127)" d="M1108.27 315.843C1111.85 320.688 1119.16 333.934 1122.47 339.536L1149.81 385.654L1183.87 443.12C1195.02 461.95 1219.8 493.429 1199.92 514.128C1189.87 524.595 1166.99 522.075 1152.96 522.076L1098.95 522.073L911.98 522.015L895.534 522.255C909.366 511.854 922.852 500.616 936.717 490.085C1014.74 488.996 1095.27 490.071 1173.49 489.924C1163.45 474.728 1152.29 454.825 1142.83 438.962A6399 6399 0 0 1 1087.64 345.471C1093.69 336.085 1101.76 325.147 1108.27 315.843ZM834.329 400.866C840.72 392.535 853.063 370.532 859.221 360.259L938.272 227.509C950.969 206.106 963.309 184.651 976.321 163.346C985.056 149.044 1003.39 144.91 1014.41 159.025C1022 168.747 1028.24 180.71 1034.57 191.473L1070.65 252.669L1045.08 273.799C1028.5 247.69 1013.36 219.932 997.154 193.461C991.385 202.048 984.233 215.075 978.862 224.187L945.03 281.347L908.745 342.454C901.505 354.673 892.712 368.763 886.418 381.311C872.333 387.848 849.81 394.675 834.329 400.866Z"/><path fill="rgb(226,184,78)" d="M1088.72 82.033C1096.51 85.117 1124.96 116.951 1133.25 123.595C1138.89 128.115 1140.7 132.458 1137.79 139.207C1136.23 139.79 1134.13 140.138 1132.47 140.482C1121.3 138.117 1095.55 96.498 1088.28 85.424ZM1241.38 81.636L1242.18 84.446C1240.97 90.993 1210.67 132.215 1203.4 139.276C1201.6 141.023 1196.19 140.123 1193.37 139.868C1190.32 133.892 1191.69 130.167 1196.37 125.768C1211.22 111.826 1225.7 94.436 1241.38 81.636ZM1164.75 48.481C1170.53 52.879 1172.25 111.672 1171.86 121.347C1171.78 123.298 1168.04 125.548 1166.4 126.615C1163.41 125.658 1161.93 125.37 1159.69 123.09C1157.04 115.971 1162.33 56.926 1164.75 48.481ZM1054.94 148.323C1061.97 146.926 1115.53 152.536 1119.68 157.573C1121.24 160.553 1120.34 162.745 1119.57 166.002C1117.88 167.073 1115.56 168.378 1112.93 167.775C1094.59 163.582 1074.62 157.709 1057.05 151.054C1056.18 149.93 1055.48 149.019 1054.94 148.323ZM1264.3 148.588C1268.49 147.986 1270.41 147.511 1274.55 148.568L1275.09 149.506C1270.74 154.003 1228.29 165.539 1219.39 167.907C1215.03 168.331 1212.28 166.276 1210.8 162.288C1211.59 150.909 1254.22 149.749 1264.3 148.588Z"/></svg>