<svg version="1.1" xmlns="http://www.w3.org/2000/svg" style="display: block;" viewBox="0 0 2048 726" width="1577" height="559" preserveAspectRatio="none">
<path transform="translate(0,0)" fill="rgb(254,254,254)" d="M 1205.34 167.25 C 1211.76 171.309 1215.59 194.767 1219.06 202.693 C 1229.91 227.418 1259.39 230.563 1282.04 239.52 C 1266.2 246.286 1248.93 249.169 1233.5 258.591 C 1219.9 266.899 1214.11 309.696 1206.65 316.984 C 1203.24 314.041 1195.74 289.632 1193.46 283.348 C 1176.6 311.317 1140.62 353.738 1118.63 378.733 C 1084.69 417.383 1049.27 454.721 1012.47 490.665 C 969.891 532.694 925.889 573.177 876.346 607.403 C 841.681 631.35 792.147 655.789 750.84 632.468 C 738.994 625.78 727.62 612.061 724.375 598.669 C 713.245 552.732 748.135 516.042 786.018 496.64 C 790.517 494.331 802.13 488.63 804.524 484.931 C 815.535 467.92 825.821 450.158 836.287 432.759 L 913.312 303.429 C 930.358 272.714 950.129 242.688 967.341 211.984 C 969.596 207.962 973.582 201.061 976.507 197.542 C 1009.76 157.542 1030.04 205.755 1045.11 231.331 L 1089.92 307.71 C 1079.62 316.706 1068.73 324.398 1058.54 333.846 C 1039.12 303.362 1020.1 266.865 1000.05 237.447 C 987.62 260.802 969.039 290.308 955.13 313.762 L 865.418 464.879 C 986.754 425.316 1090.52 352.312 1173.5 255.852 C 1160.87 250.083 1144.71 244.942 1131.31 239.96 C 1145.66 232.643 1171.68 227.951 1183.49 217.029 C 1194.51 206.84 1199.95 181.98 1205.34 167.25 z M 771.47 598.72 C 782.463 604.851 793.311 604.746 805.305 601.336 C 857.746 586.425 958.615 490.186 997.884 448.352 L 998.008 447.28 L 997.584 447.055 C 973.191 460.864 942.905 476.004 916.92 486.519 C 901.783 492.472 886.527 498.119 871.162 503.456 C 835.845 515.611 778.499 531.597 764.518 571.294 C 761.141 580.881 764.833 591.389 771.47 598.72 z"/>
<path transform="translate(0,0)" fill="rgb(254,254,254)" d="M 1135.98 385.749 C 1139.45 388.284 1171.74 444.646 1176.61 452.888 L 1222.85 530.684 C 1234.18 549.578 1256.81 581.223 1256.98 602.018 C 1257.32 641.4 1216.47 636.132 1191.96 636.104 L 1125.33 636.007 L 899.5 635.99 L 877.934 635.871 C 892.382 623.342 911.67 609.539 927.075 596.919 C 959.079 596.341 992.663 596.849 1024.77 596.846 L 1214.57 596.827 C 1204.96 578.47 1188.31 552.552 1177.37 534.29 C 1154.73 496.548 1132.39 458.622 1110.37 420.516 C 1118.49 410.523 1128 396.414 1135.98 385.749 z"/>
<path transform="translate(0,0)" fill="rgb(254,254,254)" d="M 1111.02 101.799 C 1118.67 102.065 1166.84 151.524 1173.02 160.712 C 1174.51 162.925 1171.95 168.068 1170.89 170.054 C 1168.01 171.25 1163 172.709 1160.77 170.336 C 1151.94 160.963 1112.96 111.418 1111.02 101.799 z"/>
<path transform="translate(0,0)" fill="rgb(254,254,254)" d="M 1296.61 101.697 L 1298.31 102.032 L 1299.06 103.446 C 1295.9 113.842 1266.53 148.236 1259.87 160.422 C 1256.59 166.431 1250.15 172.218 1242.57 171.095 C 1241.71 170.324 1240.85 169.532 1240.09 168.667 C 1238.74 167.149 1237.75 165.076 1237.96 163.01 C 1238.78 155.035 1287.13 109.546 1296.61 101.697 z"/>
<path transform="translate(0,0)" fill="rgb(254,254,254)" d="M 1204.6 60.1973 C 1205 60.4274 1207.04 61.7973 1207.11 62.3823 C 1210.54 89.1975 1213.39 120.25 1213.44 147.166 C 1213.45 150.078 1207.99 152.887 1206.06 153.912 C 1204.09 153.206 1199.14 150.857 1198.82 149.362 C 1195.76 134.856 1202.45 70.7375 1204.6 60.1973 z"/>
<path transform="translate(0,0)" fill="rgb(254,254,254)" d="M 1071.8 181.352 C 1089.23 178.581 1126.3 185.928 1144.75 188.705 C 1151.18 189.673 1151.28 197.234 1149.32 202.447 C 1148.15 203.016 1144.6 204.635 1143.63 204.471 C 1132.62 202.604 1075.75 188.626 1071.8 181.352 z"/>
<path transform="translate(0,0)" fill="rgb(254,254,254)" d="M 1333.87 180.455 C 1335.99 180.307 1336.23 180.361 1338.11 181.321 L 1338.15 182.879 C 1332.2 187.98 1277.52 203.151 1266.65 204.696 C 1238.78 183.651 1325.67 181.03 1333.87 180.455 z"/>
</svg>